# xmcd
#
# Track frame offsets: 
#        150
#        14681
#        37982
#        68169
#        86413
#        125324
#        137441
#        151361
#        178690
#        196283
#        212404
#        230316
#
# Disc length: 3282 seconds
#
# Revision: 1
# Processed by: cddbd v1.5.2PL0 Copyright (c) Steve Scherf et al.
# Submitted via: ExactAudioCopyFreeDBPlugin 1.0
#
DISCID=950cd00c
DTITLE=Bohannon - Keep On Dancin' (2013 Remastered)
DYEAR=1974
DGENRE=Soul
TTITLE0=Rap On Mr.D.J.
TTITLE1=Keep On Dancin'
TTITLE2=Truck Stop
TTITLE3=Dance With Your Parno
TTITLE4=Have A Good Day
TTITLE5=The Fat Man
TTITLE6=Red Bone
TTITLE7=South African Man
TTITLE8=Keep On Dancin' [Part 1]
TTITLE9=Keep On Dancin' [Part 2]
TTITLE10=South African Man [Part 1]
TTITLE11=Have A Good Day [Single Version]
EXTD=
EXTT0=
EXTT1=
EXTT2=
EXTT3=
EXTT4=
EXTT5=
EXTT6=
EXTT7=
EXTT8=
EXTT9=
EXTT10=
EXTT11=
PLAYORDER=
